<svg xmlns="http://www.w3.org/2000/svg" width="320" height="320" viewBox="0 0 320 320">
  <g fill="none" fill-rule="evenodd">
    <polygon fill="#181717" fill-rule="nonzero" points="0 0 320 0 320 320 0 320"/>
    <path fill="#FFFFFF" d="M159.991629,43 C93.731664,43 40,96.7249782 40,163.006486 C40,216.019806 74.3802124,260.996888 122.068726,276.866564 C128.068791,277.96748 130.259479,274.262104 130.259479,271.082672 C130.259479,268.233811 130.154736,260.687116 130.096793,250.67339 C96.7172104,257.924427 89.6741734,234.5868 89.6741734,234.5868 C84.2178812,220.724326 76.3502718,217.033807 76.3502718,217.033807 C65.455516,209.588884 77.1748443,209.739684 77.1748443,209.739684 C89.2173157,210.588028 95.5553804,222.106042 95.5553804,222.106042 C106.259965,240.443492 123.640614,235.1484 130.478622,232.076682 C131.568395,224.321987 134.668341,219.034324 138.096631,216.034663 C111.450314,213.006031 83.4371374,202.710762 83.4371374,156.727107 C83.4371374,143.626806 88.1126858,132.914793 95.7886378,124.52644 C94.5554935,121.490379 90.4370886,109.289679 96.965325,92.7685164 C96.965325,92.7685164 107.040708,89.5415411 129.964564,105.070245 C139.53629,102.408585 149.801102,101.077383 160.006486,101.030583 C170.196269,101.077383 180.46331,102.408585 190.048407,105.070245 C212.958149,89.5415411 223.014961,92.7685164 223.014961,92.7685164 C229.561769,109.289679 225.442621,121.490379 224.208734,124.52644 C231.900286,132.914793 236.543891,143.626806 236.543891,156.727107 C236.543891,202.825905 208.486886,212.969631 181.754397,215.941063 C186.062974,219.645696 189.901321,226.96879 189.901321,238.162918 C189.901321,254.204937 189.753493,267.147753 189.753493,271.082672 C189.753493,274.291818 191.915209,278.02468 198.00516,276.853193 C245.647616,260.953059 279.9996,216.005692 279.9996,163.006486 C279.9996,96.7249782 226.267193,43 159.991629,43"/>
  </g>
<head xmlns=""/></svg>